<svg width="36" height="22" viewBox="0 0 36 22" fill="none" xmlns="http://www.w3.org/2000/svg">
<mask id="mask0_2_19" style="mask-type:luminance" maskUnits="userSpaceOnUse" x="0" y="0" width="36" height="22">
<path d="M0 0H35.75V22H0V0Z" fill="white"/>
</mask>
<g mask="url(#mask0_2_19)">
<mask id="mask1_2_19" style="mask-type:luminance" maskUnits="userSpaceOnUse" x="-11" y="-13" width="57" height="46">
<path d="M-2.89233 32.0842L-10.2051 -1.78589L37.9656 -12.187L45.2783 21.6831L-2.89233 32.0842Z" fill="white"/>
</mask>
<g mask="url(#mask1_2_19)">
<mask id="mask2_2_19" style="mask-type:luminance" maskUnits="userSpaceOnUse" x="-9" y="-12" width="53" height="44">
<path d="M-1.38708 31.7593L-8.69983 -2.11084L36.2092 -11.8083L43.522 22.0618L-1.38708 31.7593Z" fill="white"/>
</mask>
<g mask="url(#mask2_2_19)">
<mask id="mask3_2_19" style="mask-type:luminance" maskUnits="userSpaceOnUse" x="-11" y="-13" width="57" height="46">
<path d="M-2.88965 32.0842L-10.2037 -1.78723L37.9683 -12.187L45.281 21.6831L-2.88965 32.0842Z" fill="white"/>
</mask>
<g mask="url(#mask3_2_19)">
<path fill-rule="evenodd" clip-rule="evenodd" d="M0.429688 12.1145C0.684815 12.187 0.742554 12.0527 0.684815 11.5197C0.655274 11.2471 0.667358 10.5609 0.710327 9.99426C0.753296 9.42761 0.78418 8.58569 0.778809 8.12244C0.761353 6.75415 0.797607 5.42346 0.855347 5.32678C0.930542 5.2019 1.37903 5.83972 2.31091 7.396C2.74597 8.12378 3.2146 8.90259 3.35156 9.12817C3.75977 9.79956 4.68897 11.4485 5.02734 12.1011C5.96594 13.9098 6.61047 15.2257 6.98914 16.1093C8.81799 20.3766 9.46655 21.4508 10.3286 21.6361C11.1396 21.8093 11.6539 21.3394 11.8795 20.2208C12.2488 18.3839 12.3575 16.0461 12.1508 14.3234L12.0286 13.2988L12.7698 12.6073C13.7393 11.7023 13.7178 11.6875 13.7017 13.2371C13.6923 14.0387 13.8547 14.5758 14.1018 14.557C14.2428 14.5476 14.2992 14.4832 14.326 14.3005L14.3636 14.0575L14.6241 14.2737C14.937 14.5328 15.0417 14.5194 15.2338 14.2012C15.4741 13.8051 16.3389 13.8225 16.4261 14.2267C16.4678 14.4174 16.7498 14.3395 16.8518 14.1099C16.9861 13.8091 17.1526 13.7701 17.3258 14.0011C17.5406 14.2898 17.7676 14.2576 18.0026 13.9071C18.251 13.5365 18.3839 13.4989 18.6901 13.7084C19.0029 13.9232 19.0217 13.9125 19.2701 13.3727C19.4407 13.0007 19.5333 12.8933 19.7173 12.8544C19.8448 12.8262 20.0879 12.6556 20.2598 12.4757C20.6062 12.1091 20.6008 12.1091 20.9419 12.5294C21.0762 12.6959 21.2749 12.8557 21.385 12.8839C21.577 12.9323 21.5757 12.939 21.3286 13.045C21.1339 13.131 21.1057 13.1686 21.2091 13.2048C21.283 13.2317 21.3259 13.28 21.3044 13.3149C21.2816 13.3485 21.1876 13.3485 21.095 13.3149C20.9594 13.2666 20.7539 13.3431 20.0852 13.6896C18.9089 14.2992 17.0291 15.3143 16.1348 15.8219C14.6 16.6947 13.4183 17.3365 13.2935 17.3647C13.0638 17.4171 12.9712 17.5715 13.0679 17.7394C13.1874 17.9489 13.2841 17.9207 14.0414 17.4561C14.8027 16.9874 14.7987 16.9888 14.8806 17.2103C14.9545 17.4091 15.501 17.3983 15.6608 17.1969C15.881 16.9176 20.0865 14.4926 22.231 13.4076C22.3572 13.3445 22.9238 13.0518 23.4891 12.7577C24.0558 12.4636 24.6949 12.1387 24.9084 12.0353C25.1219 11.9319 25.3274 11.8191 25.3636 11.7828C25.3999 11.7479 25.5865 11.7869 25.7786 11.8688C25.9692 11.952 26.5507 12.2018 27.069 12.4274C27.5886 12.6516 28.0317 12.8315 28.0559 12.8262C28.0787 12.8208 28.2721 12.8879 28.4856 12.9752C29.4161 13.3566 31.9097 14.0226 32.7758 14.1219C33.0389 14.1515 33.2968 14.1945 33.3478 14.2173C33.7399 14.3905 35.6198 14.463 35.7191 14.3099C35.8171 14.1582 34.7308 13.4358 34.179 13.2841C33.9722 13.229 33.8862 13.2129 33.9883 13.2505C34.2864 13.3619 35.1014 13.8896 35.1216 13.9836C35.2277 14.4724 29.7559 13.233 27.4517 12.2474C25.6819 11.4901 25.7343 11.5908 26.8219 11.0457C27.2462 10.8335 27.5577 10.62 27.6464 10.4857C27.7242 10.3649 27.8558 10.2521 27.9404 10.2346C28.025 10.2158 28.4856 10.0063 28.9636 9.77002C29.443 9.53235 29.9318 9.29199 30.0513 9.2356C30.2205 9.15771 30.254 9.09595 30.2043 8.96167C30.1171 8.72534 30.0217 8.75757 28.1674 9.66931C27.3026 10.095 26.3184 10.577 25.9813 10.7408C25.6429 10.9047 25.2965 11.0765 25.2106 11.1222C25.1005 11.1813 24.8829 11.1289 24.4667 10.9436L23.8785 10.6818L24.0719 10.2709C24.7822 8.74951 24.703 8.85693 25.3153 8.56421C28.2546 7.1543 28.5997 6.05322 26.129 5.97131C25.6886 5.95789 25.7061 5.99011 25.8551 5.4624C27.0864 1.10644 25.0776 -0.797608 21.1675 1.02051C20.1617 1.48914 20.0892 1.52673 19.869 1.68518C19.7482 1.77246 19.6139 1.85974 19.5709 1.87854C18.7384 2.2384 17.4091 3.53552 17.2694 4.125C16.8384 5.94983 18.729 6.61719 23.4542 6.30701C23.7993 6.28418 24.2787 6.27881 24.519 6.29358C24.7594 6.30835 25.0172 6.30835 25.0911 6.29224C25.3099 6.2439 25.2885 6.42114 24.9528 7.37988C24.5459 8.54407 24.5808 8.5011 23.8571 8.79517C23.0031 9.1416 21.4951 9.8291 21.4575 9.88953C21.3702 10.0225 21.7462 10.2507 22.5103 10.5273L23.3535 10.8335L23.0393 11.2444C22.0698 12.516 21.5878 12.7456 21.0815 12.179C20.6787 11.7278 20.4961 11.7184 20.1309 12.132C19.9912 12.2891 19.7911 12.4153 19.626 12.4515C19.3494 12.5106 19.0701 12.8302 18.9506 13.2236C18.8982 13.3928 18.8901 13.3928 18.6364 13.2693C18.2939 13.1041 18.0496 13.1659 17.8038 13.4828L17.6024 13.7406L17.401 13.6117C17.1768 13.468 16.8599 13.5043 16.6611 13.6949C16.5551 13.7983 16.4745 13.7943 16.2046 13.6681C15.7252 13.4452 15.403 13.4734 15.082 13.7688C14.8846 13.9501 14.8014 13.9877 14.7598 13.9165C14.6591 13.7487 14.2401 13.519 14.1649 13.5916C14.1193 13.6345 14.0924 13.5862 14.0937 13.4626C14.1139 11.0537 14.0078 10.9369 12.8168 12.0527L12.0071 12.8101L11.8903 12.3602C11.3182 10.1567 10.4414 9.50684 9.40747 10.5206C8.87439 11.0443 8.4259 12.5294 8.58166 13.2532C8.79382 14.2374 10.1487 14.4429 11.3934 13.6788C11.5653 13.5728 11.713 13.4841 11.7211 13.4828C11.8191 13.4613 11.9265 15.838 11.8795 16.9512C11.7614 19.7065 11.384 21.1527 10.7489 21.2883C10.0413 21.4401 9.38733 20.5162 8.00024 17.4091C7.24158 15.7091 6.18079 13.464 5.81018 12.7765C4.56543 10.4669 4.18677 9.80359 2.69629 7.32886C1.20581 4.85413 0.609619 4.1438 0.463257 4.66748C0.409546 4.8595 0.366577 6.35266 0.388062 7.3208C0.408203 8.33997 0.409546 8.297 0.351807 9.14294C0.182617 11.6056 0.194702 12.0474 0.429688 12.1145ZM9.03552 12.0903C9.26782 11.0483 10.0319 10.2131 10.5663 10.4213C10.8966 10.5488 11.3303 11.4525 11.5532 12.4784L11.6781 13.0571L11.2994 13.28C9.59949 14.2791 8.65955 13.7849 9.03552 12.0903ZM15.8286 16.4369C16.1979 16.2328 16.5215 16.0811 16.5483 16.0985C16.5927 16.1267 15.2365 16.9445 15.0928 16.9753C14.8954 17.0183 15.2593 16.7511 15.8286 16.4369ZM13.7701 9.31885C14.0615 9.36316 14.1246 9.21545 13.9058 9.00195C13.6949 8.79382 13.5378 8.84082 13.5553 9.10669C13.5634 9.23291 13.6278 9.29736 13.7701 9.31885ZM16.3241 19.7267C16.4705 19.7495 16.5564 19.5575 16.5067 19.3185C16.4114 18.8579 16.457 18.6108 16.6195 18.7035C16.7739 18.7894 16.9337 18.8015 17.123 18.7411C17.1768 18.7236 17.2533 18.5894 17.2936 18.4417C17.3876 18.0992 17.5111 18.0697 17.5769 18.3745C17.6843 18.8754 18.0885 19.1829 18.1476 18.8082C18.1838 18.5746 17.499 17.3057 17.3271 17.2896C17.115 17.2694 17.0223 17.3768 17.0667 17.5876C17.0881 17.6857 17.0546 17.9072 16.9941 18.0804L16.8827 18.3973L16.6907 18.2429C16.5833 18.1583 16.4879 18.0442 16.4758 17.9905C16.4436 17.8441 15.9965 17.6011 15.8823 17.6682C15.7319 17.7568 16.1495 19.6998 16.3241 19.7267ZM17.2815 15.6312L17.5138 15.5305L17.2869 15.6984C17.1606 15.791 16.9579 15.9092 16.8344 15.9615L16.6101 16.0582L16.829 15.8944C16.9498 15.8058 17.1539 15.6863 17.2815 15.6312ZM18.2255 17.1848C18.7935 18.4014 19.8368 19.0701 19.9241 18.2711C19.9711 17.8293 19.814 16.6061 19.6958 16.5094C19.3802 16.2476 19.3037 16.4718 19.4434 17.256C19.6273 18.2939 19.5387 18.4135 19.054 17.7797C18.8512 17.5138 18.631 17.1472 18.5665 16.9633C18.4484 16.6343 18.3383 16.5322 18.1422 16.5712C18.0415 16.5913 18.0804 16.8719 18.2255 17.1848ZM17.6481 4.13843C18.165 2.64929 22.6351 0.353149 24.323 0.706298C25.886 1.03528 26.2378 2.16455 25.6497 4.96826C25.4321 6.00354 25.5033 5.94849 24.4022 5.9364C23.9994 5.93103 23.1978 5.95117 22.6217 5.98071C18.7921 6.17541 17.1499 5.56714 17.6481 4.13843ZM20.5149 16.2758C20.5673 16.3093 20.7029 16.6464 20.8157 17.025C21.1124 18.0187 21.4495 18.0052 21.2856 17.0076L21.2024 16.5013L21.8322 16.6719C22.1786 16.7659 22.5747 16.8894 22.7103 16.9458C22.8459 17.0022 23.0165 17.0371 23.0876 17.021C23.2045 16.9968 23.2179 16.9525 23.1642 16.7726C23.1548 16.7404 23.226 16.6759 23.324 16.6289C23.4891 16.5497 23.4918 16.5107 23.3656 16.0502C23.2233 15.5305 23.2407 15.4701 23.4905 15.6312C23.7537 15.7991 23.9511 15.646 24.0222 15.2163L24.0867 14.8229L24.3297 15.2767C24.6386 15.8501 24.8077 15.983 24.9528 15.7601C25.0521 15.6057 24.7997 15.1075 24.1202 14.1193C23.8947 13.7916 23.6986 13.9756 23.7067 14.5033C23.7188 15.3586 23.6194 15.4016 23.0675 14.7826C22.4028 14.0374 22.3317 14.2133 22.764 15.5319C22.9493 16.0945 23.093 16.5685 23.0836 16.5846C23.0608 16.6249 22.2001 16.4047 21.7355 16.2395L21.3662 16.1079L21.5743 15.7856C21.9302 15.2378 21.5851 14.4764 21.0345 14.5946C20.7418 14.6577 20.3887 15.3372 20.5068 15.6084C20.5834 15.783 20.5793 15.8635 20.4907 15.9213C20.3578 16.0085 20.3699 16.1818 20.5149 16.2758ZM21.0292 15.1519C21.1487 14.988 21.1608 14.9854 21.2668 15.1062C21.4025 15.2593 21.3514 15.4956 21.1473 15.6688C20.95 15.8353 20.8519 15.3989 21.0292 15.1519ZM22.7385 12.1252C22.9198 11.9426 23.1964 11.6136 23.3508 11.3934C23.6906 10.9141 23.6342 10.9275 24.2102 11.1866C24.5996 11.3612 24.6533 11.4082 24.5244 11.4633C24.4398 11.4995 23.9309 11.7493 23.3938 12.0178C22.8567 12.2864 22.4149 12.4958 22.4122 12.4824C22.4095 12.4703 22.5559 12.3092 22.7385 12.1252ZM22.6794 9.71094C23.61 9.27856 24.2384 9.01135 24.2733 9.03284C24.3042 9.05298 24.1243 9.43298 23.6892 10.2628L23.5428 10.5435L22.8433 10.2762C22.4592 10.1299 22.1558 9.99426 22.1692 9.97412C22.1826 9.95398 22.4109 9.83581 22.6794 9.71094ZM24.6855 13.9756C25.2911 15.1102 26.4432 15.7776 26.5695 15.0673C26.646 14.6335 26.317 12.8127 26.1465 12.7255C25.8511 12.571 25.8202 12.8356 26.0391 13.6614C26.2928 14.6201 26.27 15.0068 25.9719 14.835C25.7168 14.6886 25.2576 14.1636 25.0736 13.8064C24.9917 13.6493 24.8668 13.511 24.7957 13.4989C24.6211 13.4734 24.5593 13.7406 24.6855 13.9756ZM25.1971 7.63904C25.318 7.30066 25.4644 6.87097 25.5208 6.68433C25.6456 6.28284 25.6725 6.27344 26.4701 6.37952C27.4799 6.51379 27.5725 6.62122 27.0837 7.0979C26.6769 7.49536 25.0159 8.4353 24.9836 8.28625C24.981 8.2688 25.0763 7.97742 25.1971 7.63904ZM25.6685 9.64917C25.7759 9.71899 26.023 9.64917 26.0632 9.53772C26.2257 9.08252 25.843 8.44604 25.6725 8.88647C25.5704 9.151 25.5678 9.58472 25.6685 9.64917ZM26.8743 9.87207C27.3711 9.75525 27.7511 9.1886 27.4691 8.98584C27.3724 8.91736 27.2435 8.74683 27.1831 8.60718C27.0166 8.22986 26.6769 8.26611 26.7601 8.65283C26.7924 8.80188 26.881 8.97913 26.9562 9.04626C27.0743 9.151 27.069 9.2074 26.9186 9.45984C26.7292 9.77405 26.7145 9.90967 26.8743 9.87207Z" fill="white"/>
</g>
</g>
</g>
</g>
</svg>
