<svg width="40" height="40" viewBox="0 0 40 40" fill="none" xmlns="http://www.w3.org/2000/svg">
<mask id="mask0_2_20" style="mask-type:luminance" maskUnits="userSpaceOnUse" x="2" y="9" width="36" height="22">
<path d="M2 9H37.75V31H2V9Z" fill="white"/>
</mask>
<g mask="url(#mask0_2_20)">
<mask id="mask1_2_20" style="mask-type:luminance" maskUnits="userSpaceOnUse" x="-9" y="-4" width="57" height="46">
<path d="M-0.892334 41.0842L-8.20508 7.21411L39.9656 -3.18701L47.2783 30.6831L-0.892334 41.0842Z" fill="white"/>
</mask>
<g mask="url(#mask1_2_20)">
<mask id="mask2_2_20" style="mask-type:luminance" maskUnits="userSpaceOnUse" x="-7" y="-3" width="53" height="44">
<path d="M0.612915 40.7593L-6.69983 6.88916L38.2092 -2.80835L45.522 31.0618L0.612915 40.7593Z" fill="white"/>
</mask>
<g mask="url(#mask2_2_20)">
<mask id="mask3_2_20" style="mask-type:luminance" maskUnits="userSpaceOnUse" x="-9" y="-4" width="57" height="46">
<path d="M-0.889648 41.0842L-8.20374 7.21277L39.9683 -3.18701L47.281 30.6831L-0.889648 41.0842Z" fill="white"/>
</mask>
<g mask="url(#mask3_2_20)">
<path fill-rule="evenodd" clip-rule="evenodd" d="M2.42969 21.1145C2.68481 21.187 2.74255 21.0527 2.68481 20.5197C2.65527 20.2471 2.66736 19.5609 2.71033 18.9943C2.7533 18.4276 2.78418 17.5857 2.77881 17.1224C2.76135 15.7542 2.79761 14.4235 2.85535 14.3268C2.93054 14.2019 3.37903 14.8397 4.31091 16.396C4.74597 17.1238 5.2146 17.9026 5.35156 18.1282C5.75977 18.7996 6.68897 20.4485 7.02734 21.1011C7.96594 22.9098 8.61047 24.2257 8.98914 25.1093C10.818 29.3766 11.4666 30.4508 12.3286 30.6361C13.1396 30.8093 13.6539 30.3394 13.8795 29.2208C14.2488 27.3839 14.3575 25.0461 14.1508 23.3234L14.0286 22.2988L14.7698 21.6073C15.7393 20.7023 15.7178 20.6875 15.7017 22.2371C15.6923 23.0387 15.8547 23.5758 16.1018 23.557C16.2428 23.5476 16.2992 23.4832 16.326 23.3005L16.3636 23.0575L16.6241 23.2737C16.937 23.5328 17.0417 23.5194 17.2338 23.2012C17.4741 22.8051 18.3389 22.8225 18.4261 23.2267C18.4678 23.4174 18.7498 23.3395 18.8518 23.1099C18.9861 22.8091 19.1526 22.7701 19.3258 23.0011C19.5406 23.2898 19.7676 23.2576 20.0026 22.9071C20.251 22.5365 20.3839 22.4989 20.6901 22.7084C21.0029 22.9232 21.0217 22.9125 21.2701 22.3727C21.4407 22.0007 21.5333 21.8933 21.7173 21.8544C21.8448 21.8262 22.0879 21.6556 22.2598 21.4757C22.6062 21.1091 22.6008 21.1091 22.9419 21.5294C23.0762 21.6959 23.2749 21.8557 23.385 21.8839C23.577 21.9323 23.5757 21.939 23.3286 22.045C23.1339 22.131 23.1057 22.1686 23.2091 22.2048C23.283 22.2317 23.3259 22.28 23.3044 22.3149C23.2816 22.3485 23.1876 22.3485 23.095 22.3149C22.9594 22.2666 22.7539 22.3431 22.0852 22.6896C20.9089 23.2992 19.0291 24.3143 18.1348 24.8219C16.6 25.6947 15.4183 26.3365 15.2935 26.3647C15.0638 26.4171 14.9712 26.5715 15.0679 26.7394C15.1874 26.9489 15.2841 26.9207 16.0414 26.4561C16.8027 25.9874 16.7987 25.9888 16.8806 26.2103C16.9545 26.4091 17.501 26.3983 17.6608 26.1969C17.881 25.9176 22.0865 23.4926 24.231 22.4076C24.3572 22.3445 24.9238 22.0518 25.4891 21.7577C26.0558 21.4636 26.6949 21.1387 26.9084 21.0353C27.1219 20.9319 27.3274 20.8191 27.3636 20.7828C27.3999 20.7479 27.5865 20.7869 27.7786 20.8688C27.9692 20.952 28.5507 21.2018 29.069 21.4274C29.5886 21.6516 30.0317 21.8315 30.0559 21.8262C30.0787 21.8208 30.2721 21.8879 30.4856 21.9752C31.4161 22.3566 33.9097 23.0226 34.7758 23.1219C35.0389 23.1515 35.2968 23.1945 35.3478 23.2173C35.7399 23.3905 37.6198 23.463 37.7191 23.3099C37.8171 23.1582 36.7308 22.4358 36.179 22.2841C35.9722 22.229 35.8862 22.2129 35.9883 22.2505C36.2864 22.3619 37.1014 22.8896 37.1216 22.9836C37.2277 23.4724 31.7559 22.233 29.4517 21.2474C27.6819 20.4901 27.7343 20.5908 28.8219 20.0457C29.2462 19.8335 29.5577 19.62 29.6464 19.4857C29.7242 19.3649 29.8558 19.2521 29.9404 19.2346C30.025 19.2158 30.4856 19.0063 30.9636 18.77C31.443 18.5323 31.9318 18.292 32.0513 18.2356C32.2205 18.1577 32.254 18.0959 32.2043 17.9617C32.1171 17.7253 32.0217 17.7576 30.1674 18.6693C29.3026 19.095 28.3184 19.577 27.9813 19.7408C27.6429 19.9047 27.2965 20.0765 27.2106 20.1222C27.1005 20.1813 26.8829 20.1289 26.4667 19.9436L25.8785 19.6818L26.0719 19.2709C26.7822 17.7495 26.703 17.8569 27.3153 17.5642C30.2546 16.1543 30.5997 15.0532 28.129 14.9713C27.6886 14.9579 27.7061 14.9901 27.8551 14.4624C29.0864 10.1064 27.0776 8.20239 23.1675 10.0205C22.1617 10.4891 22.0892 10.5267 21.869 10.6852C21.7482 10.7725 21.6139 10.8597 21.5709 10.8785C20.7384 11.2384 19.4091 12.5355 19.2694 13.125C18.8384 14.9498 20.729 15.6172 25.4542 15.307C25.7993 15.2842 26.2787 15.2788 26.519 15.2936C26.7594 15.3083 27.0172 15.3083 27.0911 15.2922C27.3099 15.2439 27.2885 15.4211 26.9528 16.3799C26.5459 17.5441 26.5808 17.5011 25.8571 17.7952C25.0031 18.1416 23.4951 18.8291 23.4575 18.8895C23.3702 19.0225 23.7462 19.2507 24.5103 19.5273L25.3535 19.8335L25.0393 20.2444C24.0698 21.516 23.5878 21.7456 23.0815 21.179C22.6787 20.7278 22.4961 20.7184 22.1309 21.132C21.9912 21.2891 21.7911 21.4153 21.626 21.4515C21.3494 21.5106 21.0701 21.8302 20.9506 22.2236C20.8982 22.3928 20.8901 22.3928 20.6364 22.2693C20.2939 22.1041 20.0496 22.1659 19.8038 22.4828L19.6024 22.7406L19.401 22.6117C19.1768 22.468 18.8599 22.5043 18.6611 22.6949C18.5551 22.7983 18.4745 22.7943 18.2046 22.6681C17.7252 22.4452 17.403 22.4734 17.082 22.7688C16.8846 22.9501 16.8014 22.9877 16.7598 22.9165C16.6591 22.7487 16.2401 22.519 16.1649 22.5916C16.1193 22.6345 16.0924 22.5862 16.0937 22.4626C16.1139 20.0537 16.0078 19.9369 14.8168 21.0527L14.0071 21.8101L13.8903 21.3602C13.3182 19.1567 12.4414 18.5068 11.4075 19.5206C10.8744 20.0443 10.4259 21.5294 10.5817 22.2532C10.7938 23.2374 12.1487 23.4429 13.3934 22.6788C13.5653 22.5728 13.713 22.4841 13.7211 22.4828C13.8191 22.4613 13.9265 24.838 13.8795 25.9512C13.7614 28.7065 13.384 30.1527 12.7489 30.2883C12.0413 30.4401 11.3873 29.5162 10.0002 26.4091C9.24158 24.7091 8.18079 22.464 7.81018 21.7765C6.56543 19.4669 6.18677 18.8036 4.69629 16.3289C3.20581 13.8541 2.60962 13.1438 2.46326 13.6675C2.40955 13.8595 2.36658 15.3527 2.38806 16.3208C2.4082 17.34 2.40955 17.297 2.35181 18.1429C2.18262 20.6056 2.1947 21.0474 2.42969 21.1145ZM11.0355 21.0903C11.2678 20.0483 12.0319 19.2131 12.5663 19.4213C12.8966 19.5488 13.3303 20.4525 13.5532 21.4784L13.6781 22.0571L13.2994 22.28C11.5995 23.2791 10.6595 22.7849 11.0355 21.0903ZM17.8286 25.4369C18.1979 25.2328 18.5215 25.0811 18.5483 25.0985C18.5927 25.1267 17.2365 25.9445 17.0928 25.9753C16.8954 26.0183 17.2593 25.7511 17.8286 25.4369ZM15.7701 18.3188C16.0615 18.3632 16.1246 18.2155 15.9058 18.002C15.6949 17.7938 15.5378 17.8408 15.5553 18.1067C15.5634 18.2329 15.6278 18.2974 15.7701 18.3188ZM18.3241 28.7267C18.4705 28.7495 18.5564 28.5575 18.5067 28.3185C18.4114 27.8579 18.457 27.6108 18.6195 27.7035C18.7739 27.7894 18.9337 27.8015 19.123 27.7411C19.1768 27.7236 19.2533 27.5894 19.2936 27.4417C19.3876 27.0992 19.5111 27.0697 19.5769 27.3745C19.6843 27.8754 20.0885 28.1829 20.1476 27.8082C20.1838 27.5746 19.499 26.3057 19.3271 26.2896C19.115 26.2694 19.0223 26.3768 19.0667 26.5876C19.0881 26.6857 19.0546 26.9072 18.9941 27.0804L18.8827 27.3973L18.6907 27.2429C18.5833 27.1583 18.4879 27.0442 18.4758 26.9905C18.4436 26.8441 17.9965 26.6011 17.8823 26.6682C17.7319 26.7568 18.1495 28.6998 18.3241 28.7267ZM19.2815 24.6312L19.5138 24.5305L19.2869 24.6984C19.1606 24.791 18.9579 24.9092 18.8344 24.9615L18.6101 25.0582L18.829 24.8944C18.9498 24.8058 19.1539 24.6863 19.2815 24.6312ZM20.2255 26.1848C20.7935 27.4014 21.8368 28.0701 21.9241 27.2711C21.9711 26.8293 21.814 25.6061 21.6958 25.5094C21.3802 25.2476 21.3037 25.4718 21.4434 26.256C21.6273 27.2939 21.5387 27.4135 21.054 26.7797C20.8512 26.5138 20.631 26.1472 20.5665 25.9633C20.4484 25.6343 20.3383 25.5322 20.1422 25.5712C20.0415 25.5913 20.0804 25.8719 20.2255 26.1848ZM19.6481 13.1384C20.165 11.6493 24.6351 9.35315 26.323 9.7063C27.886 10.0353 28.2378 11.1646 27.6497 13.9683C27.4321 15.0035 27.5033 14.9485 26.4022 14.9364C25.9994 14.931 25.1978 14.9512 24.6217 14.9807C20.7921 15.1754 19.1499 14.5671 19.6481 13.1384ZM22.5149 25.2758C22.5673 25.3093 22.7029 25.6464 22.8157 26.025C23.1124 27.0187 23.4495 27.0052 23.2856 26.0076L23.2024 25.5013L23.8322 25.6719C24.1786 25.7659 24.5747 25.8894 24.7103 25.9458C24.8459 26.0022 25.0165 26.0371 25.0876 26.021C25.2045 25.9968 25.2179 25.9525 25.1642 25.7726C25.1548 25.7404 25.226 25.6759 25.324 25.6289C25.4891 25.5497 25.4918 25.5107 25.3656 25.0502C25.2233 24.5305 25.2407 24.4701 25.4905 24.6312C25.7537 24.7991 25.9511 24.646 26.0222 24.2163L26.0867 23.8229L26.3297 24.2767C26.6386 24.8501 26.8077 24.983 26.9528 24.7601C27.0521 24.6057 26.7997 24.1075 26.1202 23.1193C25.8947 22.7916 25.6986 22.9756 25.7067 23.5033C25.7188 24.3586 25.6194 24.4016 25.0675 23.7826C24.4028 23.0374 24.3317 23.2133 24.764 24.5319C24.9493 25.0945 25.093 25.5685 25.0836 25.5846C25.0608 25.6249 24.2001 25.4047 23.7355 25.2395L23.3662 25.1079L23.5743 24.7856C23.9302 24.2378 23.5851 23.4764 23.0345 23.5946C22.7418 23.6577 22.3887 24.3372 22.5068 24.6084C22.5834 24.783 22.5793 24.8635 22.4907 24.9213C22.3578 25.0085 22.3699 25.1818 22.5149 25.2758ZM23.0292 24.1519C23.1487 23.988 23.1608 23.9854 23.2668 24.1062C23.4025 24.2593 23.3514 24.4956 23.1473 24.6688C22.95 24.8353 22.8519 24.3989 23.0292 24.1519ZM24.7385 21.1252C24.9198 20.9426 25.1964 20.6136 25.3508 20.3934C25.6906 19.9141 25.6342 19.9275 26.2102 20.1866C26.5996 20.3612 26.6533 20.4082 26.5244 20.4633C26.4398 20.4995 25.9309 20.7493 25.3938 21.0178C24.8567 21.2864 24.4149 21.4958 24.4122 21.4824C24.4095 21.4703 24.5559 21.3092 24.7385 21.1252ZM24.6794 18.7109C25.61 18.2786 26.2384 18.0114 26.2733 18.0328C26.3042 18.053 26.1243 18.433 25.6892 19.2628L25.5428 19.5435L24.8433 19.2762C24.4592 19.1299 24.1558 18.9943 24.1692 18.9741C24.1826 18.954 24.4109 18.8358 24.6794 18.7109ZM26.6855 22.9756C27.2911 24.1102 28.4432 24.7776 28.5695 24.0673C28.646 23.6335 28.317 21.8127 28.1465 21.7255C27.8511 21.571 27.8202 21.8356 28.0391 22.6614C28.2928 23.6201 28.27 24.0068 27.9719 23.835C27.7168 23.6886 27.2576 23.1636 27.0736 22.8064C26.9917 22.6493 26.8668 22.511 26.7957 22.4989C26.6211 22.4734 26.5593 22.7406 26.6855 22.9756ZM27.1971 16.639C27.318 16.3007 27.4644 15.871 27.5208 15.6843C27.6456 15.2828 27.6725 15.2734 28.4701 15.3795C29.4799 15.5138 29.5725 15.6212 29.0837 16.0979C28.6769 16.4954 27.0159 17.4353 26.9836 17.2863C26.981 17.2688 27.0763 16.9774 27.1971 16.639ZM27.6685 18.6492C27.7759 18.719 28.023 18.6492 28.0632 18.5377C28.2257 18.0825 27.843 17.446 27.6725 17.8865C27.5704 18.151 27.5678 18.5847 27.6685 18.6492ZM28.8743 18.8721C29.3711 18.7552 29.7511 18.1886 29.4691 17.9858C29.3724 17.9174 29.2435 17.7468 29.1831 17.6072C29.0166 17.2299 28.6769 17.2661 28.7601 17.6528C28.7924 17.8019 28.881 17.9791 28.9562 18.0463C29.0743 18.151 29.069 18.2074 28.9186 18.4598C28.7292 18.774 28.7145 18.9097 28.8743 18.8721Z" fill="black"/>
</g>
</g>
</g>
</g>
</svg>
