<?xml version="1.0" encoding="utf-8"?>
<!-- Uploaded to: SVG Repo, www.svgrepo.com, Generator: SVG Repo Mixer Tools -->
<svg version="1.2" baseProfile="tiny" xmlns="http://www.w3.org/2000/svg" xmlns:xlink="http://www.w3.org/1999/xlink" x="0px"
	 y="0px" viewBox="0 0 256 256" xml:space="preserve">
<g id="Layer_1">
	<image display="none" width="1600" height="1600" xlink:href="../../Desktop/Mars.jpg"  transform="matrix(1 0 0 1 -544 -800)">
	</image>
	
		<image display="none" width="636" height="444" xlink:href="../../Desktop/MARS_1178670f.jpg"  transform="matrix(3.9741 0 0 3.9741 -1008.1072 -882.2592)">
	</image>
</g>
<g id="Layer_2">
	<g>
		<path fill="none" d="M204.7,199.4c18.8-52.9-53.7-60.5-63.8-24.5c-2.2,8-21.5,35.6-30.7,34.9c-7.2-0.6-11.6-1.6-10.3-12.9
			c0.9-7.5-12.6,1.1-16.7-2.3s-6.7-30.7-4.5-34.7c1.1-1.9,18.5-20.5,24.6-31.8c1.4-2.5-1.6-7.3-2.8-8.2c-4.4-3.3-30.5,1.7-37,3.5
			s-17.1,1.9-23.2-4.4c-6.1-6.3,8.5-29.2,12.8-30.8c4.3-1.5,11.1-1.4,17.8,1.4c6.7,2.7-1.1,12.8,3,14c4.1,1.2,8.2-4.5,17.6-6
			c25.5,3.5,36.1,10.1,49,15.8c15.2,3.2,7.6-9.2,20.2-9.1c26,0.3,18.2-39.3,17.8-43.7c-0.3-4.4-0.3-9.6,3.8-14.7
			c4.1-5.1,13.3,6.8,19.1,7.9c5.8,1-2.9,7.2-2.7,10.9c0.2,3.8,15.7,22.2,14.7,24.9c-1,2.7-6.1,2.3-9.7,1.9c-3.6-0.3-3.7,6-2.6,10.9
			c1.2,5,13.1,13.6,21.3,13.3c3.6-0.1,12.5-2.6,18.1-5.9c-1.4-9-3.9-17.7-7.5-26.1c-5.7-13.6-14-25.8-24.4-36.3
			c-2.3-2.3-4.6-4.4-7-6.5c-4.3-0.7-22.1-3.9-30.8-9.9c-9.9-6.8-13.8-5.6-13.8-4.1c0,1.5-0.3,2.7-5.4,2.2c-5.1-0.5-7.2-5.8-11.8-6
			c-4.6-0.2-14.5-1.7-19,0s-24.1,4.8-28.5,2c-1.8-1.1-7.8-0.6-14.4,0.3C66.6,31,56.3,38.3,47.3,47.3C36.9,57.8,28.6,70,22.9,83.6
			c-5.9,14.1-9,29-9,44.4c0,15.4,3,30.3,9,44.4c5.7,13.6,14,25.8,24.4,36.3c10.5,10.5,22.7,18.7,36.3,24.4c2.4,1,4.7,1.9,7.1,2.7
			c-1-0.9-1.5-1.9-1.5-2.9c0.3-4.5,13.7-7.2,29.7-5.9c3,0.2,7.4-5.2,10.1-4.7c5,0.8,8.7,5.2,11.7,7.8c4.1,3.4,6.8,5.3,6.6,7.4
			c-0.1,1.4-1.4,2.5-3.6,3.5c9.8-1.4,19.3-4,28.4-7.9c12.1-5.1,23.1-12.2,32.8-21.1C204.3,209.3,204,201.5,204.7,199.4z M174.9,45.2
			c2.4,0,4.3,0.9,4.3,2s-1.9,2-4.3,2c-2.4,0-4.3-0.9-4.3-2S172.5,45.2,174.9,45.2z M165.8,86.8c2.6,0,4.8,0.6,4.8,1.4
			c0,0.8-2.1,1.4-4.8,1.4c-2.6,0-4.8-0.6-4.8-1.4C161.1,87.4,163.2,86.8,165.8,86.8z M163.6,92.5c3.4,0,6.2,1.2,6.2,2.7
			c0,1.5-2.8,2.7-6.2,2.7s-6.2-1.2-6.2-2.7C157.4,93.7,160.2,92.5,163.6,92.5z M91.7,121.9c3.2,0,5.9,1.7,5.9,3.9s-2.6,3.9-5.9,3.9
			c-3.2,0-5.9-1.7-5.9-3.9S88.5,121.9,91.7,121.9z M85.9,135.3c1.5,0,2.7,0.9,2.7,2c0,1.1-1.2,2-2.7,2c-1.5,0-2.7-0.9-2.7-2
			C83.2,136.2,84.4,135.3,85.9,135.3z M74,130c0-1.1,1.2-2,2.7-2s2.7,0.9,2.7,2c0,1.1-1.2,2-2.7,2S74,131.2,74,130z"/>
		<path d="M242.9,79.5c-6.3-14.8-15.3-28.2-26.7-39.6s-24.8-20.4-39.6-26.7c-15.4-6.5-31.7-9.8-48.5-9.8s-33.2,3.3-48.5,9.8
			c-14.8,6.3-28.2,15.3-39.6,26.7C28.4,51.3,19.4,64.6,13.1,79.5C6.6,94.8,3.3,111.2,3.3,128s3.3,33.2,9.8,48.5
			c6.3,14.8,15.3,28.2,26.7,39.6c11.4,11.4,24.8,20.4,39.6,26.7c15.4,6.5,31.7,9.8,48.5,9.8s33.2-3.3,48.5-9.8
			c14.8-6.3,28.2-15.3,39.6-26.7s20.4-24.8,26.7-39.6c6.5-15.4,9.8-31.7,9.8-48.5S249.4,94.8,242.9,79.5z M172.4,233.1
			c-9.1,3.9-18.7,6.5-28.4,7.9c2.2-1,3.5-2.2,3.6-3.5c0.2-2.1-2.5-4-6.6-7.4c-3.1-2.5-6.7-6.9-11.7-7.8c-2.7-0.4-7.1,4.9-10.1,4.7
			c-16.1-1.2-29.4,1.4-29.7,5.9c-0.1,1,0.4,1.9,1.5,2.9c-2.4-0.8-4.8-1.7-7.1-2.7c-13.6-5.7-25.8-14-36.3-24.4
			c-10.5-10.5-18.7-22.7-24.4-36.3c-5.9-14.1-9-29-9-44.4c0-15.4,3-30.3,9-44.4c5.7-13.6,14-25.8,24.4-36.3c9-9,19.3-16.3,30.6-21.9
			c6.6-1,12.6-1.4,14.4-0.3c4.4,2.7,24.1-0.3,28.5-2s14.3-0.2,19,0c4.6,0.2,6.7,5.5,11.8,6c5.1,0.5,5.4-0.7,5.4-2.2
			c0-1.5,3.9-2.7,13.8,4.1c8.7,6,26.5,9.2,30.8,9.9c2.4,2,4.8,4.2,7,6.5c10.5,10.5,18.7,22.7,24.4,36.3c3.6,8.4,6.1,17.2,7.5,26.1
			c-5.6,3.3-14.5,5.8-18.1,5.9c-8.3,0.3-20.1-8.4-21.3-13.3c-1.2-5-1-11.3,2.6-10.9c3.6,0.3,8.7,0.8,9.7-1.9
			c1-2.7-14.5-21.1-14.7-24.9c-0.2-3.8,8.5-9.9,2.7-10.9c-5.8-1-15-13-19.1-7.9c-4.1,5.1-4.1,10.2-3.8,14.7
			c0.3,4.4,8.2,44.1-17.8,43.7c-12.6-0.2-5,12.3-20.2,9.1c-12.9-5.7-23.5-12.3-49-15.8c-9.4,1.5-13.5,7.2-17.6,6
			c-4.1-1.2,3.7-11.3-3-14c-6.7-2.7-13.5-2.9-17.8-1.4c-4.3,1.5-19,24.5-12.8,30.8c6.1,6.3,16.7,6.1,23.2,4.4s32.6-6.7,37-3.5
			c1.2,0.9,4.2,5.7,2.8,8.2c-6.1,11.3-23.5,29.9-24.6,31.8c-2.3,4,0.4,31.3,4.5,34.7s17.5-5.2,16.7,2.3
			c-1.3,11.3,3.1,12.3,10.3,12.9c9.2,0.7,28.4-26.9,30.7-34.9c10.1-36,82.6-28.4,63.8,24.5c-0.7,2.1-0.4,9.9,0.4,12.6
			C195.5,220.9,184.5,228,172.4,233.1z M168.2,116.6c0,3-3.3,5.4-7.4,5.4c-4.1,0-7.4-2.4-7.4-5.4s3.3-5.4,7.4-5.4
			C164.9,111.2,168.2,113.6,168.2,116.6z"/>
		<ellipse cx="91.7" cy="125.8" rx="5.9" ry="3.9"/>
		<ellipse cx="76.7" cy="130" rx="2.7" ry="2"/>
		<ellipse cx="85.9" cy="137.4" rx="2.7" ry="2"/>
		<ellipse cx="163.6" cy="95.1" rx="6.2" ry="2.7"/>
		<ellipse cx="165.8" cy="88.1" rx="4.8" ry="1.4"/>
		<ellipse cx="174.9" cy="47.3" rx="4.3" ry="2"/>
	</g>
</g>
</svg>