<svg width="23" height="23" viewBox="0 0 23 23" fill="none" xmlns="http://www.w3.org/2000/svg">
<path d="M10.5344 1.58632C10.8001 0.599641 12.1999 0.599643 12.4656 1.58632L14.2141 8.08028C14.3068 8.42442 14.5756 8.69324 14.9197 8.7859L21.4137 10.5344C22.4004 10.8001 22.4004 12.1999 21.4137 12.4656L14.9197 14.2141C14.5756 14.3068 14.3068 14.5756 14.2141 14.9197L12.4656 21.4137C12.1999 22.4004 10.8001 22.4004 10.5344 21.4137L8.7859 14.9197C8.69324 14.5756 8.42442 14.3068 8.08028 14.2141L1.58632 12.4656C0.599641 12.1999 0.599643 10.8001 1.58632 10.5344L8.08028 8.7859C8.42442 8.69324 8.69324 8.42442 8.7859 8.08028L10.5344 1.58632Z" fill="black"/>
</svg>
